<mxfile host="65bd71144e">
    <diagram id="13ZNeHXRz-84Zpn5O_HL" name="Page-1">
        <mxGraphModel dx="1037" dy="804" grid="1" gridSize="10" guides="1" tooltips="1" connect="1" arrows="1" fold="1" page="1" pageScale="1" pageWidth="850" pageHeight="1100" math="0" shadow="0">
            <root>
                <mxCell id="0"/>
                <mxCell id="1" parent="0"/>
                <mxCell id="2" value="Cart" style="swimlane;whiteSpace=wrap;html=1;" vertex="1" parent="1">
                    <mxGeometry x="110" y="90" width="342" height="410" as="geometry"/>
                </mxCell>
                <mxCell id="3" value="Basket" style="swimlane;whiteSpace=wrap;html=1;" vertex="1" parent="2">
                    <mxGeometry x="19.23" y="60" width="261.54" height="150" as="geometry"/>
                </mxCell>
                <mxCell id="4" value="Product A" style="whiteSpace=wrap;html=1;aspect=fixed;" vertex="1" parent="3">
                    <mxGeometry x="21.54" y="40" width="50" height="50" as="geometry"/>
                </mxCell>
                <mxCell id="6" value="Product C" style="whiteSpace=wrap;html=1;aspect=fixed;" vertex="1" parent="3">
                    <mxGeometry x="131.54" y="40" width="50" height="50" as="geometry"/>
                </mxCell>
                <mxCell id="5" value="Product B" style="whiteSpace=wrap;html=1;aspect=fixed;" vertex="1" parent="3">
                    <mxGeometry x="75" y="40" width="50" height="50" as="geometry"/>
                </mxCell>
                <mxCell id="7" value="Camera" style="rounded=0;whiteSpace=wrap;html=1;" vertex="1" parent="3">
                    <mxGeometry x="21.539999999999992" y="130" width="120" height="30" as="geometry"/>
                </mxCell>
                <mxCell id="13" value="" style="endArrow=none;dashed=1;html=1;entryX=0.25;entryY=0;entryDx=0;entryDy=0;exitX=0.75;exitY=1;exitDx=0;exitDy=0;" edge="1" parent="3" source="4" target="7">
                    <mxGeometry width="50" height="50" relative="1" as="geometry">
                        <mxPoint x="50.77000000000001" y="190" as="sourcePoint"/>
                        <mxPoint x="100.77000000000001" y="140" as="targetPoint"/>
                    </mxGeometry>
                </mxCell>
                <mxCell id="15" value="" style="endArrow=none;dashed=1;html=1;exitX=0.5;exitY=0;exitDx=0;exitDy=0;entryX=0.25;entryY=1;entryDx=0;entryDy=0;" edge="1" parent="3" source="7" target="5">
                    <mxGeometry width="50" height="50" relative="1" as="geometry">
                        <mxPoint x="100.77000000000001" y="140" as="sourcePoint"/>
                        <mxPoint x="150.77" y="90" as="targetPoint"/>
                    </mxGeometry>
                </mxCell>
                <mxCell id="16" value="" style="endArrow=none;dashed=1;html=1;exitX=0.75;exitY=0;exitDx=0;exitDy=0;entryX=0.75;entryY=1;entryDx=0;entryDy=0;" edge="1" parent="3" source="7" target="6">
                    <mxGeometry width="50" height="50" relative="1" as="geometry">
                        <mxPoint x="110.77000000000001" y="140" as="sourcePoint"/>
                        <mxPoint x="160.77" y="90" as="targetPoint"/>
                    </mxGeometry>
                </mxCell>
                <mxCell id="8" value="Light" style="rounded=0;whiteSpace=wrap;html=1;" vertex="1" parent="2">
                    <mxGeometry x="170.76999999999998" y="190" width="91.54" height="40" as="geometry"/>
                </mxCell>
                <mxCell id="17" value="Raspberry Pi" style="rounded=0;whiteSpace=wrap;html=1;" vertex="1" parent="2">
                    <mxGeometry x="80" y="260" width="120" height="60" as="geometry"/>
                </mxCell>
                <mxCell id="18" value="Battery&lt;br&gt;Circuit" style="whiteSpace=wrap;html=1;aspect=fixed;" vertex="1" parent="2">
                    <mxGeometry x="-40" y="250" width="80" height="80" as="geometry"/>
                </mxCell>
                <mxCell id="23" value="" style="endArrow=none;html=1;exitX=0.314;exitY=-0.048;exitDx=0;exitDy=0;exitPerimeter=0;entryX=0.75;entryY=1;entryDx=0;entryDy=0;" edge="1" parent="2" source="17" target="7">
                    <mxGeometry width="50" height="50" relative="1" as="geometry">
                        <mxPoint x="90" y="270" as="sourcePoint"/>
                        <mxPoint x="140" y="220" as="targetPoint"/>
                    </mxGeometry>
                </mxCell>
                <mxCell id="24" value="" style="endArrow=none;html=1;entryX=0.5;entryY=1;entryDx=0;entryDy=0;exitX=0.75;exitY=0;exitDx=0;exitDy=0;" edge="1" parent="2" source="17" target="8">
                    <mxGeometry width="50" height="50" relative="1" as="geometry">
                        <mxPoint x="180" y="270" as="sourcePoint"/>
                        <mxPoint x="230" y="220" as="targetPoint"/>
                    </mxGeometry>
                </mxCell>
                <mxCell id="19" value="TFT LCD" style="whiteSpace=wrap;html=1;aspect=fixed;" vertex="1" parent="1">
                    <mxGeometry x="210" y="460" width="80" height="80" as="geometry"/>
                </mxCell>
                <mxCell id="20" value="" style="endArrow=none;html=1;exitX=0.5;exitY=0;exitDx=0;exitDy=0;entryX=0.5;entryY=1;entryDx=0;entryDy=0;" edge="1" parent="1" source="19" target="17">
                    <mxGeometry width="50" height="50" relative="1" as="geometry">
                        <mxPoint x="380" y="440" as="sourcePoint"/>
                        <mxPoint x="430" y="390" as="targetPoint"/>
                        <Array as="points"/>
                    </mxGeometry>
                </mxCell>
                <mxCell id="21" value="NFC Reader" style="whiteSpace=wrap;html=1;aspect=fixed;" vertex="1" parent="1">
                    <mxGeometry x="410" y="400" width="80" height="80" as="geometry"/>
                </mxCell>
                <mxCell id="22" value="" style="endArrow=none;html=1;exitX=1;exitY=0.5;exitDx=0;exitDy=0;" edge="1" parent="1" source="17" target="21">
                    <mxGeometry width="50" height="50" relative="1" as="geometry">
                        <mxPoint x="340" y="430" as="sourcePoint"/>
                        <mxPoint x="390" y="380" as="targetPoint"/>
                    </mxGeometry>
                </mxCell>
                <mxCell id="25" value="Credit Card" style="whiteSpace=wrap;html=1;aspect=fixed;" vertex="1" parent="1">
                    <mxGeometry x="620" y="450" width="80" height="80" as="geometry"/>
                </mxCell>
                <mxCell id="26" value="" style="endArrow=none;dashed=1;html=1;dashPattern=1 3;strokeWidth=2;entryX=0;entryY=0.25;entryDx=0;entryDy=0;" edge="1" parent="1" source="21" target="25">
                    <mxGeometry width="50" height="50" relative="1" as="geometry">
                        <mxPoint x="530" y="500" as="sourcePoint"/>
                        <mxPoint x="580" y="450" as="targetPoint"/>
                    </mxGeometry>
                </mxCell>
                <mxCell id="27" value="NFC" style="edgeLabel;html=1;align=center;verticalAlign=middle;resizable=0;points=[];" vertex="1" connectable="0" parent="26">
                    <mxGeometry x="0.3036" relative="1" as="geometry">
                        <mxPoint x="1" as="offset"/>
                    </mxGeometry>
                </mxCell>
                <mxCell id="29" style="edgeStyle=none;html=1;entryX=0;entryY=0.75;entryDx=0;entryDy=0;endArrow=none;endFill=0;" edge="1" parent="1" source="28" target="25">
                    <mxGeometry relative="1" as="geometry"/>
                </mxCell>
                <mxCell id="30" style="edgeStyle=none;html=1;exitX=0;exitY=0.3333333333333333;exitDx=0;exitDy=0;exitPerimeter=0;entryX=1;entryY=0.75;entryDx=0;entryDy=0;endArrow=none;endFill=0;" edge="1" parent="1" source="28" target="19">
                    <mxGeometry relative="1" as="geometry"/>
                </mxCell>
                <mxCell id="28" value="Actor" style="shape=umlActor;verticalLabelPosition=bottom;verticalAlign=top;html=1;outlineConnect=0;" vertex="1" parent="1">
                    <mxGeometry x="510" y="540" width="30" height="60" as="geometry"/>
                </mxCell>
                <mxCell id="32" value="Products DBMS" style="swimlane;whiteSpace=wrap;html=1;" vertex="1" parent="1">
                    <mxGeometry x="580" y="70" width="200" height="200" as="geometry"/>
                </mxCell>
                <mxCell id="33" value="DBMS" style="whiteSpace=wrap;html=1;aspect=fixed;" vertex="1" parent="32">
                    <mxGeometry x="65" y="65" width="70" height="70" as="geometry"/>
                </mxCell>
                <mxCell id="36" value="HTTPS" style="endArrow=none;dashed=1;html=1;dashPattern=1 3;strokeWidth=2;exitX=1;exitY=0.25;exitDx=0;exitDy=0;entryX=0;entryY=0.5;entryDx=0;entryDy=0;" edge="1" parent="1" source="17" target="32">
                    <mxGeometry width="50" height="50" relative="1" as="geometry">
                        <mxPoint x="530" y="280" as="sourcePoint"/>
                        <mxPoint x="590" y="220" as="targetPoint"/>
                        <Array as="points">
                            <mxPoint x="500" y="270"/>
                        </Array>
                    </mxGeometry>
                </mxCell>
            </root>
        </mxGraphModel>
    </diagram>
</mxfile>